<svg width="207" height="59" viewBox="0 0 207 59" fill="none" xmlns="http://www.w3.org/2000/svg">
<g clip-path="url(#clip0_403_2079)">
<path d="M18.6234 44.48C15.7434 44.48 13.4101 43.44 11.6234 41.36C9.83677 39.28 8.94344 36.36 8.94344 32.6C8.94344 29.5867 9.51677 26.8 10.6634 24.24C11.8368 21.6533 13.5168 19.5733 15.7034 18C17.9168 16.4 20.2901 15.6 22.8234 15.6C25.3834 15.6 27.4901 16.1067 29.1434 17.12C30.8234 18.1333 31.6634 19.4667 31.6634 21.12C31.6634 22.7467 31.2101 24.04 30.3034 25C29.2368 25 28.0101 24.7867 26.6234 24.36C25.2368 23.9333 24.1968 23.4133 23.5034 22.8L24.2634 18.92C23.7034 18.6533 23.1568 18.52 22.6234 18.52C21.0768 18.52 19.7168 19.8667 18.5434 22.56C17.3701 25.2267 16.7834 28.36 16.7834 31.96C16.7834 37.3467 18.3034 40.04 21.3434 40.04C23.1568 40.04 25.1834 39.0533 27.4234 37.08L29.3034 38.96C29.0901 39.3067 28.5434 39.88 27.6634 40.68C26.7834 41.4533 25.9434 42.08 25.1434 42.56C24.3701 43.04 23.3834 43.48 22.1834 43.88C21.0101 44.28 19.8234 44.48 18.6234 44.48ZM42.1484 41.76C41.2951 42.5067 40.1751 43.1467 38.7884 43.68C37.4018 44.2133 36.1351 44.48 34.9884 44.48C33.8684 44.48 32.9484 44.16 32.2284 43.52C31.5084 42.8533 31.1484 41.9067 31.1484 40.68C31.1484 39.4533 31.8151 36.04 33.1484 30.44C34.5084 24.8133 35.1884 20.64 35.1884 17.92C35.1884 17.3333 35.1084 16.5867 34.9484 15.68C37.4551 14.9867 39.8818 14.64 42.2284 14.64C42.4684 15.0667 42.5884 15.76 42.5884 16.72C42.5884 18.5333 41.9084 22.4933 40.5484 28.6C39.2151 34.68 38.5484 38.1867 38.5484 39.12C38.5484 40.0533 38.7084 40.52 39.0284 40.52C39.2951 40.52 39.8684 40.3467 40.7484 40L41.1884 39.8L42.1484 41.76ZM52.7834 29C52.7834 30.1733 52.4501 32 51.7834 34.48C51.1168 36.9333 50.7834 38.5333 50.7834 39.28C50.7834 40.0267 50.9301 40.4 51.2234 40.4C51.5168 40.4 52.0501 40.2667 52.8234 40L53.1834 39.84L53.9034 41.84C52.9968 42.5333 51.8634 43.1467 50.5034 43.68C49.1701 44.2133 47.9568 44.48 46.8634 44.48C45.7701 44.48 44.9034 44.1733 44.2634 43.56C43.6501 42.9467 43.3434 42.0667 43.3434 40.92C43.3434 39.7467 43.6634 37.9733 44.3034 35.6C44.9701 33.2 45.3034 31.68 45.3034 31.04C45.3034 30.0533 44.9568 29.12 44.2634 28.24L43.9434 27.8L44.0634 27.12C45.4501 26.6933 48.1434 26.48 52.1434 26.48C52.5701 26.96 52.7834 27.8 52.7834 29ZM49.7834 23.36C48.5834 23.36 47.6368 23.04 46.9434 22.4C46.2768 21.76 45.9434 20.9467 45.9434 19.96C45.9434 18.9467 46.3568 18.1067 47.1834 17.44C48.0368 16.7467 49.0634 16.4 50.2634 16.4C51.4634 16.4 52.3968 16.68 53.0634 17.24C53.7301 17.8 54.0634 18.5867 54.0634 19.6C54.0634 20.6133 53.6501 21.4933 52.8234 22.24C52.0234 22.9867 51.0101 23.36 49.7834 23.36ZM65.2956 28.96C64.469 28.96 63.7623 29.6933 63.1756 31.16C62.589 32.6267 62.2956 34.1067 62.2956 35.6C62.2956 38.88 63.2423 40.52 65.1356 40.52C66.3356 40.52 67.6956 39.9467 69.2156 38.8L70.4956 40.56C69.3756 41.7867 68.029 42.7467 66.4556 43.44C64.909 44.1333 63.3623 44.48 61.8156 44.48C59.7356 44.48 58.0423 43.8533 56.7356 42.6C55.4556 41.32 54.8156 39.4 54.8156 36.84C54.8156 33.7467 55.7623 31.2133 57.6556 29.24C59.5756 27.2667 62.0823 26.28 65.1756 26.28C67.1756 26.28 68.749 26.6933 69.8956 27.52C71.0423 28.32 71.6156 29.3467 71.6156 30.6C71.6156 31.8267 71.2423 32.8933 70.4956 33.8C69.6156 33.8 68.6556 33.64 67.6156 33.32C66.6023 32.9733 65.789 32.5467 65.1756 32.04L65.7756 29.04C65.6156 28.9867 65.4556 28.96 65.2956 28.96ZM76.6888 17.56C76.6888 16.8667 76.6221 16.2533 76.4888 15.72C79.1288 15 81.5288 14.64 83.6888 14.64C83.9554 14.96 84.0888 15.6667 84.0888 16.76C84.0888 18.7067 83.4888 22.44 82.2888 27.96C84.4221 26.84 86.3021 26.28 87.9288 26.28C89.5821 26.28 90.8354 26.6133 91.6888 27.28C92.5688 27.9467 93.0087 28.88 93.0087 30.08C93.0087 32.4 91.2888 34.0533 87.8488 35.04C88.7021 38.72 89.5288 40.56 90.3288 40.56L92.2488 40.04L93.1288 42C92.4621 42.5333 91.4354 43.08 90.0488 43.64C88.6621 44.2 87.3288 44.48 86.0488 44.48C84.7688 44.48 83.7954 44 83.1288 43.04C82.4621 42.08 82.0354 40.8267 81.8488 39.28C81.6621 37.7333 81.5688 36 81.5688 34.08C82.8488 33.76 83.8621 33.3067 84.6088 32.72C85.3554 32.1067 85.7288 31.5067 85.7288 30.92C85.7288 30.3067 85.4088 30 84.7688 30C84.2621 30 83.6621 30.1467 82.9688 30.44C82.3021 30.7333 81.8088 31.0133 81.4888 31.28C80.0488 37.36 79.3288 41.4267 79.3288 43.48C77.2754 43.9333 74.8354 44.16 72.0088 44.16C71.9821 43.9467 71.9688 43.6933 71.9688 43.4C71.9688 42.0133 72.7554 37.96 74.3288 31.24C75.9021 24.4933 76.6888 19.9333 76.6888 17.56ZM107.64 44.48C105.507 44.48 103.373 44.1067 101.24 43.36C99.6933 43.9467 97.9067 44.24 95.88 44.24C95.4267 44.24 95.0133 44.2133 94.64 44.16C94.64 42.56 95.3733 38.6133 96.84 32.32C98.3067 26.0267 99.04 22.4667 99.04 21.64C99.04 20.8133 98.88 20.08 98.56 19.44C98.2667 18.8 97.96 18.32 97.64 18L97.2 17.56L97.36 16.56C98.0267 16.4267 99.56 16.24 101.96 16C104.387 15.7333 106.44 15.6 108.12 15.6C114.627 15.6 117.88 17.6933 117.88 21.88C117.88 23.8267 117.213 25.4133 115.88 26.64C114.573 27.8667 112.947 28.6933 111 29.12C112.84 29.3333 114.387 30 115.64 31.12C116.893 32.2133 117.52 33.7733 117.52 35.8C117.52 38.3067 116.587 40.3867 114.72 42.04C112.853 43.6667 110.493 44.48 107.64 44.48ZM106.28 30.48C105.8 30.48 105.267 30.52 104.68 30.6C103.64 35.16 102.973 38.4667 102.68 40.52C103.267 40.8667 104.067 41.04 105.08 41.04C106.627 41.04 107.787 40.4 108.56 39.12C109.333 37.84 109.72 36.4 109.72 34.8C109.72 33.1733 109.427 32.0533 108.84 31.44C108.28 30.8 107.427 30.48 106.28 30.48ZM105.76 27.56C106.933 27.56 107.853 27.12 108.52 26.24C109.72 24.72 110.32 23.04 110.32 21.2C110.32 19.3333 109.68 18.4 108.4 18.4L107.08 18.56C107.053 19.6 106.493 22.6 105.4 27.56H105.76ZM128.994 29C128.994 30.1733 128.661 32 127.994 34.48C127.328 36.9333 126.994 38.5333 126.994 39.28C126.994 40.0267 127.141 40.4 127.434 40.4C127.728 40.4 128.261 40.2667 129.034 40L129.394 39.84L130.114 41.84C129.208 42.5333 128.074 43.1467 126.714 43.68C125.381 44.2133 124.168 44.48 123.074 44.48C121.981 44.48 121.114 44.1733 120.474 43.56C119.861 42.9467 119.554 42.0667 119.554 40.92C119.554 39.7467 119.874 37.9733 120.514 35.6C121.181 33.2 121.514 31.68 121.514 31.04C121.514 30.0533 121.168 29.12 120.474 28.24L120.154 27.8L120.274 27.12C121.661 26.6933 124.354 26.48 128.354 26.48C128.781 26.96 128.994 27.8 128.994 29ZM125.994 23.36C124.794 23.36 123.848 23.04 123.154 22.4C122.488 21.76 122.154 20.9467 122.154 19.96C122.154 18.9467 122.568 18.1067 123.394 17.44C124.248 16.7467 125.274 16.4 126.474 16.4C127.674 16.4 128.608 16.68 129.274 17.24C129.941 17.8 130.274 18.5867 130.274 19.6C130.274 20.6133 129.861 21.4933 129.034 22.24C128.234 22.9867 127.221 23.36 125.994 23.36ZM142.227 41.76C141.373 42.5067 140.253 43.1467 138.867 43.68C137.48 44.2133 136.213 44.48 135.067 44.48C133.947 44.48 133.027 44.16 132.307 43.52C131.587 42.8533 131.227 41.9067 131.227 40.68C131.227 39.4533 131.893 36.04 133.227 30.44C134.587 24.8133 135.267 20.64 135.267 17.92C135.267 17.3333 135.187 16.5867 135.027 15.68C137.533 14.9867 139.96 14.64 142.307 14.64C142.547 15.0667 142.667 15.76 142.667 16.72C142.667 18.5333 141.987 22.4933 140.627 28.6C139.293 34.68 138.627 38.1867 138.627 39.12C138.627 40.0533 138.787 40.52 139.107 40.52C139.373 40.52 139.947 40.3467 140.827 40L141.267 39.8L142.227 41.76ZM154.102 41.76C153.248 42.5067 152.128 43.1467 150.742 43.68C149.355 44.2133 148.088 44.48 146.942 44.48C145.822 44.48 144.902 44.16 144.182 43.52C143.462 42.8533 143.102 41.9067 143.102 40.68C143.102 39.4533 143.768 36.04 145.102 30.44C146.462 24.8133 147.142 20.64 147.142 17.92C147.142 17.3333 147.062 16.5867 146.902 15.68C149.408 14.9867 151.835 14.64 154.182 14.64C154.422 15.0667 154.542 15.76 154.542 16.72C154.542 18.5333 153.862 22.4933 152.502 28.6C151.168 34.68 150.502 38.1867 150.502 39.12C150.502 40.0533 150.662 40.52 150.982 40.52C151.248 40.52 151.822 40.3467 152.702 40L153.142 39.8L154.102 41.76Z" fill="white"/>
<path d="M173.5 4L174.628 15.2445C175.302 21.9667 180.126 27.541 186.681 29.1736L190 30L186.681 30.8264C180.126 32.459 175.302 38.0333 174.628 44.7555L173.5 56L172.372 44.7555C171.698 38.0333 166.874 32.459 160.319 30.8264L157 30L160.319 29.1736C166.874 27.541 171.698 21.9667 172.372 15.2445L173.5 4Z" fill="#F6C31E"/>
<path d="M182.766 48.3996L184.981 44.6024C185.262 44.1204 185.403 43.8794 185.633 43.7467C185.863 43.6139 186.142 43.6126 186.7 43.6102L191.096 43.5906C193.592 43.5795 194.84 43.5739 195.064 42.8871C195.287 42.2003 194.283 41.4603 192.273 39.9802L192.273 39.9802L180.619 31.3973C179.041 30.2351 178.252 29.654 177.685 29.981C177.119 30.308 177.228 31.2819 177.445 33.2296L179.051 47.6138C179.328 50.0943 179.467 51.3345 180.173 51.484C180.88 51.6335 181.509 50.5555 182.766 48.3996Z" fill="black" stroke="white" stroke-width="4"/>
</g>
<defs>
<clipPath id="clip0_403_2079">
<rect width="207" height="59" fill="white"/>
</clipPath>
</defs>
</svg>
